<mxfile host="app.diagrams.net" modified="2023-08-28T12:41:45.007Z" agent="Mozilla/5.0 (Windows NT 10.0; Win64; x64) AppleWebKit/537.36 (KHTML, like Gecko) Chrome/116.0.0.0 Safari/537.36" etag="l91ziXqDelUzHpKtDHj_" version="21.6.9" type="device">
  <diagram name="PÃ¡gina-1" id="KfQcnZhE_UV3mCfnfU4q">
    <mxGraphModel dx="1050" dy="574" grid="1" gridSize="10" guides="1" tooltips="1" connect="1" arrows="1" fold="1" page="1" pageScale="1" pageWidth="827" pageHeight="1169" math="0" shadow="0">
      <root>
        <mxCell id="0" />
        <mxCell id="1" parent="0" />
        <mxCell id="CHL_Pb67gSMFBvNcenmV-1" value="Curriculo&lt;br&gt;" style="swimlane;fontStyle=1;align=center;verticalAlign=top;childLayout=stackLayout;horizontal=1;startSize=30;horizontalStack=0;resizeParent=1;resizeParentMax=0;resizeLast=0;collapsible=1;marginBottom=0;whiteSpace=wrap;html=1;" vertex="1" parent="1">
          <mxGeometry x="330" y="240" width="170" height="128" as="geometry" />
        </mxCell>
        <mxCell id="CHL_Pb67gSMFBvNcenmV-2" value="+ Nome: String&lt;br&gt;+ Data de nascimento: String&lt;br&gt;+ Objetivo: String" style="text;strokeColor=none;fillColor=none;align=left;verticalAlign=top;spacingLeft=4;spacingRight=4;overflow=hidden;rotatable=0;points=[[0,0.5],[1,0.5]];portConstraint=eastwest;whiteSpace=wrap;html=1;" vertex="1" parent="CHL_Pb67gSMFBvNcenmV-1">
          <mxGeometry y="30" width="170" height="64" as="geometry" />
        </mxCell>
        <mxCell id="CHL_Pb67gSMFBvNcenmV-3" value="" style="line;strokeWidth=1;fillColor=none;align=left;verticalAlign=middle;spacingTop=-1;spacingLeft=3;spacingRight=3;rotatable=0;labelPosition=right;points=[];portConstraint=eastwest;strokeColor=inherit;" vertex="1" parent="CHL_Pb67gSMFBvNcenmV-1">
          <mxGeometry y="94" width="170" height="8" as="geometry" />
        </mxCell>
        <mxCell id="CHL_Pb67gSMFBvNcenmV-4" value="+ Empregar ( ) : Void" style="text;strokeColor=none;fillColor=none;align=left;verticalAlign=top;spacingLeft=4;spacingRight=4;overflow=hidden;rotatable=0;points=[[0,0.5],[1,0.5]];portConstraint=eastwest;whiteSpace=wrap;html=1;" vertex="1" parent="CHL_Pb67gSMFBvNcenmV-1">
          <mxGeometry y="102" width="170" height="26" as="geometry" />
        </mxCell>
        <mxCell id="CHL_Pb67gSMFBvNcenmV-5" style="edgeStyle=orthogonalEdgeStyle;rounded=0;orthogonalLoop=1;jettySize=auto;html=1;exitX=1;exitY=0.5;exitDx=0;exitDy=0;entryX=1.015;entryY=0.908;entryDx=0;entryDy=0;entryPerimeter=0;" edge="1" parent="CHL_Pb67gSMFBvNcenmV-1" source="CHL_Pb67gSMFBvNcenmV-2" target="CHL_Pb67gSMFBvNcenmV-2">
          <mxGeometry relative="1" as="geometry" />
        </mxCell>
      </root>
    </mxGraphModel>
  </diagram>
</mxfile>
